<?xml version="1.0" encoding="utf-8" standalone="no"?>
<!DOCTYPE svg PUBLIC "-//W3C//DTD SVG 1.1//EN" "http://www.w3.org/Graphics/SVG/1.1/DTD/svg11.dtd">
<svg version="1.1" width="72pt" height="72pt" viewBox="0 0 72 72" overflow="visible" xmlns="http://www.w3.org/2000/svg">
  <path d="M25.50823,36.08427 C27.79179,33.79995 29.9065,30.20736 30.77377,26.90486" stroke="#000000" stroke-width="0.24" fill="none" />
  <path d="M39.66842,59.28683 L45.50626,62.6573" stroke="#000000" stroke-width="0.24" fill="none" />
  <path d="M45.50626,9.611308 L45.50626,15.05316" stroke="#000000" stroke-width="0.24" fill="none" />
  <path d="M59.04138,33.77185 C59.26739,30.04858 57.09044,24.6464 54.31087,21.43559" stroke="#000000" stroke-width="0.24" fill="none" />
  <path d="M41.36481,45.31741 C38.27632,44.47852 34.14056,44.42117 30.84304,45.29631" stroke="#000000" stroke-width="0.24" fill="none" />
  <path d="M15.75724,47.85781 L8.371711,52.12185" stroke="#000000" stroke-width="0.24" fill="none" />
  <path d="M36.06295,36.1343 L28.7564,40.35275" stroke="#000000" stroke-width="0.24" fill="none" />
  <path d="M43.44695,40.39746 L36.06295,36.1343" stroke="#000000" stroke-width="0.24" fill="none" />
  <path d="M54.31089,21.43562 L54.31089,14.69467" stroke="#000000" stroke-width="0.24" fill="none" />
  <path d="M26.61963,57.21542 C29.73107,59.27279 35.49797,60.08858 39.6684,59.2868" stroke="#000000" stroke-width="0.24" fill="none" />
  <path d="M63.7542,52.12185 L56.40198,47.87705" stroke="#000000" stroke-width="0.24" fill="none" />
  <path d="M8.371711,41.21766 L13.12414,38.47385" stroke="#000000" stroke-width="0.24" fill="none" />
  <path d="M36.06295,27.60799 L36.06295,36.1343" stroke="#000000" stroke-width="0.24" fill="none" />
  <path d="M54.31089,57.57394 L49.63499,54.87431" stroke="#000000" stroke-width="0.24" fill="none" />
  <path d="M41.36355,26.94658 C42.1866,30.06771 44.2345,33.71391 46.6667,36.13428" stroke="#000000" stroke-width="0.24" fill="none" />
  <path d="M36.06295,4.159214 L36.06295,12.65793" stroke="#000000" stroke-width="0.24" fill="none" />
  <path d="M22.58715,17.38385 C19.23557,19.02894 15.60748,23.64225 14.20952,27.68045 L8.371711,31.05095" stroke="#000000" stroke-width="0.24" fill="none" />
  <path d="M17.81501,57.57394 L26.63722,62.66745" stroke="#000000" stroke-width="0.48" fill="none" />
  <path d="M49.63499,54.87431 L48.47306,54.20347" stroke="#000000" stroke-width="0.48" fill="none" />
  <path d="M13.12414,38.47385 L14.20955,37.84719" stroke="#000000" stroke-width="0.48" fill="none" />
  <path d="M8.371711,52.12185 L8.371711,41.21767" stroke="#000000" stroke-width="0.48" fill="none" />
  <path d="M45.50626,15.05316 L45.50626,16.35226" stroke="#000000" stroke-width="0.48" fill="none" />
  <path d="M14.20952,37.84716 C15.84088,40.896 20.85377,40.50666 24.48986,37.04873 L25.50823,36.08427" stroke="#000000" stroke-width="0.48" fill="none" />
  <path d="M30.77377,26.90486 C31.1739,25.44507 31.35662,24.06376 31.35542,22.86462 C31.59081,18.32415 28.24303,15.27338 24.48986,16.60817 L22.58715,17.38385" stroke="#000000" stroke-width="0.48" fill="none" />
  <path d="M54.30025,14.68852 L45.50626,9.611308 L36.06295,4.159214" stroke="#000000" stroke-width="0.48" fill="none" />
  <path d="M17.81501,14.69467 L8.371711,20.14676" stroke="#000000" stroke-width="0.48" fill="none" />
  <path d="M30.84304,45.29631 C29.32602,45.68195 27.9928,46.22776 26.92482,46.84594 C22.87496,48.91232 21.90681,53.33696 24.93935,55.91991 L26.61963,57.21542" stroke="#000000" stroke-width="0.48" fill="none" />
  <path d="M63.7542,20.14676 L54.31089,14.69467" stroke="#000000" stroke-width="0.48" fill="none" />
  <path d="M57.91634,34.4214 C56.28498,31.37257 51.27208,31.7619 47.63599,35.21984 C43.88283,38.21883 40.53505,45.13528 40.77044,49.40395 C40.53505,53.94442 43.88283,56.99518 47.63599,55.66039 C51.27208,54.91973 56.28498,49.52068 57.91634,44.58812" stroke="#000000" stroke-width="0.48" fill="none" />
  <path d="M63.7542,52.12185 L36.06295,68.1094" stroke="#000000" stroke-width="0.48" fill="none" />
  <path d="M26.61963,55.91633 C30.07567,56.02795 32.24494,51.49199 31.06833,46.61407 C30.3477,41.86423 26.03177,35.50675 22.21731,33.57627 C18.40284,31.10218 14.08691,32.47606 13.36629,36.3938 C12.18967,39.91307 14.35895,46.95389 17.81499,50.83297" stroke="#000000" stroke-width="0.48" fill="none" />
  <path d="M8.371711,41.21766 L8.371711,20.14676" stroke="#000000" stroke-width="0.48" fill="none" />
  <path d="M17.81501,14.69467 L36.06295,4.159214" stroke="#000000" stroke-width="0.48" fill="none" />
  <path d="M48.47303,54.20345 C50.29772,51.26623 47.4541,47.11961 42.64139,45.69963 L41.36481,45.31741" stroke="#000000" stroke-width="0.48" fill="none" />
  <path d="M45.50623,16.35223 C42.05019,16.24062 39.88092,20.77658 41.05753,25.65449 L41.36355,26.94658" stroke="#000000" stroke-width="0.48" fill="none" />
  <path d="M36.06295,68.1094 L26.61965,62.6573" stroke="#000000" stroke-width="0.48" fill="none" />
  <path d="M46.6667,36.13428 C47.74115,37.22677 48.8585,38.08749 49.90855,38.69229 C53.72301,41.16638 58.03894,39.7925 58.75957,35.87477 L59.04138,33.77185" stroke="#000000" stroke-width="0.48" fill="none" />
  <path d="M17.81501,57.57394 L8.371711,52.12185" stroke="#000000" stroke-width="0.48" fill="none" />
  <path d="M63.7542,41.21766 L63.7542,52.12185" stroke="#000000" stroke-width="0.48" fill="none" />
  <path d="M63.7542,41.21766 L63.7542,20.14676" stroke="#000000" stroke-width="0.48" fill="none" />
  <path d="M23.65282,18.06512 C21.82814,21.00233 24.67176,25.14896 29.48446,26.56894 C33.95826,28.31977 41.62196,27.76081 45.20104,25.42263 C49.2509,23.35625 50.21905,18.9316 47.1865,16.34866 C44.72703,13.57004 37.54486,11.92828 32.45746,12.98176" stroke="#000000" stroke-width="0.48" fill="none" />
  <path d="M63.7542,52.12185 L36.06295,68.1094" stroke="#000000" stroke-width="0.24" fill="none" />
  <path d="M17.81501,14.69467 L36.06295,4.159214" stroke="#000000" stroke-width="0.24" fill="none" />
  <path d="M8.371711,52.12185 L8.371711,41.21767" stroke="#000000" stroke-width="0.24" fill="none" />
  <path d="M17.81501,57.57394 L8.371711,52.12185" stroke="#000000" stroke-width="0.24" fill="none" />
  <path d="M48.47303,54.20345 C50.29772,51.26623 47.4541,47.11961 42.64139,45.69963 L41.36481,45.31741" stroke="#000000" stroke-width="0.24" fill="none" />
  <path d="M30.77377,26.90486 C31.1739,25.44507 31.35662,24.06376 31.35542,22.86462 C31.59081,18.32415 28.24303,15.27338 24.48986,16.60817 L22.58715,17.38385" stroke="#000000" stroke-width="0.24" fill="none" />
  <path d="M17.81501,57.57394 L26.63722,62.66745" stroke="#000000" stroke-width="0.24" fill="none" />
  <path d="M13.12414,38.47385 L14.20955,37.84719" stroke="#000000" stroke-width="0.24" fill="none" />
  <path d="M45.50626,15.05316 L45.50626,16.35226" stroke="#000000" stroke-width="0.24" fill="none" />
  <path d="M54.30025,14.68852 L45.50626,9.611308" stroke="#000000" stroke-width="0.24" fill="none" />
  <path d="M28.7564,40.35275 L15.75724,47.85781" stroke="#000000" stroke-width="0.24" fill="none" />
  <path d="M56.40198,47.87705 L43.44695,40.39746" stroke="#000000" stroke-width="0.24" fill="none" />
  <path d="M45.50626,9.611308 L36.06295,4.159214" stroke="#000000" stroke-width="0.24" fill="none" />
  <path d="M14.20952,37.84716 C15.84088,40.896 20.85377,40.50666 24.48986,37.04873 L25.50823,36.08427" stroke="#000000" stroke-width="0.24" fill="none" />
  <path d="M30.84304,45.29631 C29.32602,45.68195 27.9928,46.22776 26.92482,46.84594 C22.87496,48.91232 21.90681,53.33696 24.93935,55.91991 L26.61963,57.21542" stroke="#000000" stroke-width="0.24" fill="none" />
  <path d="M57.91636,44.58814 L63.7542,41.21766 L63.7542,20.14676" stroke="#000000" stroke-width="0.24" fill="none" />
  <path d="M17.81501,50.833 L17.81501,57.57394" stroke="#000000" stroke-width="0.24" fill="none" />
  <path d="M49.63499,54.87431 L48.47306,54.20347" stroke="#000000" stroke-width="0.24" fill="none" />
  <path d="M63.7542,20.14676 L54.31089,14.69467" stroke="#000000" stroke-width="0.24" fill="none" />
  <path d="M36.06295,36.1343 L63.7542,20.14676" stroke="#000000" stroke-width="0.24" fill="none" />
  <path d="M57.91634,34.4214 C56.28498,31.37257 51.27208,31.7619 47.63599,35.21984 C43.88283,38.21883 40.53505,45.13528 40.77044,49.40395 C40.53505,53.94442 43.88283,56.99518 47.63599,55.66039 C51.27208,54.91973 56.28498,49.52068 57.91634,44.58812" stroke="#000000" stroke-width="0.24" fill="none" />
  <path d="M63.7542,31.05095 L57.91636,34.42142" stroke="#000000" stroke-width="0.24" fill="none" />
  <path d="M17.81501,14.69467 L23.65285,18.06514" stroke="#000000" stroke-width="0.24" fill="none" />
  <path d="M63.7542,41.21766 L63.7542,52.12185" stroke="#000000" stroke-width="0.24" fill="none" />
  <path d="M36.06295,36.1343 L36.06295,68.1094" stroke="#000000" stroke-width="0.24" fill="none" />
  <path d="M8.371711,41.21766 L8.371711,20.14676 L36.06295,36.13431" stroke="#000000" stroke-width="0.24" fill="none" />
  <path d="M32.45749,12.98178 L26.61965,9.611308" stroke="#000000" stroke-width="0.24" fill="none" />
  <path d="M23.65282,18.06512 C21.82814,21.00233 24.67176,25.14896 29.48446,26.56894 C33.95826,28.31977 41.62196,27.76081 45.20104,25.42263 C49.2509,23.35625 50.21905,18.9316 47.1865,16.34866 C44.72703,13.57004 37.54486,11.92828 32.45746,12.98176" stroke="#000000" stroke-width="0.24" fill="none" />
  <path d="M26.61963,55.91633 C30.07567,56.02795 32.24494,51.49199 31.06833,46.61407 C30.3477,41.86423 26.03177,35.50675 22.21731,33.57627 C18.40284,31.10218 14.08691,32.47606 13.36629,36.3938 C12.18967,39.91307 14.35895,46.95389 17.81499,50.83297" stroke="#000000" stroke-width="0.24" fill="none" />
  <path d="M26.61965,62.6573 L26.61965,55.91635" stroke="#000000" stroke-width="0.24" fill="none" />
  <path d="M36.06295,68.1094 L26.61965,62.6573" stroke="#000000" stroke-width="0.24" fill="none" />
  <path d="M46.6667,36.13428 C47.74115,37.22677 48.8585,38.08749 49.90855,38.69229 C53.72301,41.16638 58.03894,39.7925 58.75957,35.87477 L59.04138,33.77185" stroke="#000000" stroke-width="0.24" fill="none" />
  <path d="M17.81501,14.69467 L8.371711,20.14676" stroke="#000000" stroke-width="0.24" fill="none" />
  <path d="M36.06295,12.65793 L36.06295,27.60799" stroke="#000000" stroke-width="0.24" fill="none" />
  <path d="M45.50623,16.35223 C42.05019,16.24062 39.88092,20.77658 41.05753,25.65449 L41.36355,26.94658" stroke="#000000" stroke-width="0.24" fill="none" />
</svg>