<?xml version="1.0" encoding="utf-8"?>
<!-- Generator: Adobe Illustrator 26.1.0, SVG Export Plug-In . SVG Version: 6.00 Build 0)  -->
<svg version="1.1" id="Layer_1" xmlns="http://www.w3.org/2000/svg" xmlns:xlink="http://www.w3.org/1999/xlink" x="0px" y="0px"
	 viewBox="0 0 28.3 28.3" style="enable-background:new 0 0 28.3 28.3;" xml:space="preserve">
<style type="text/css">
	.st0{fill:none;stroke:#FFFFFF;stroke-width:0.24;}
	.st1{fill:none;stroke:#FFFFFF;stroke-width:0.48;}
</style>
<path class="st0" d="M10.1,14.2c0.9-0.9,1.7-2.3,2-3.5"/>
<path class="st0" d="M15.6,23.1l2.2,1.3"/>
<path class="st0" d="M17.8,4v2.1"/>
<path class="st0" d="M23,13.3c0.1-1.4-0.8-3.5-1.8-4.8"/>
<path class="st0" d="M16.2,17.7c-1.2-0.3-2.8-0.3-4.1,0"/>
<path class="st0" d="M6.4,18.7l-2.8,1.6"/>
<path class="st0" d="M14.2,14.2l-2.8,1.6"/>
<path class="st0" d="M17,15.9l-2.8-1.6"/>
<path class="st0" d="M21.2,8.6V6"/>
<path class="st0" d="M10.5,22.3c1.2,0.8,3.4,1.1,5,0.8"/>
<path class="st0" d="M24.8,20.4L22,18.7"/>
<path class="st0" d="M3.5,16.2l1.8-1.1"/>
<path class="st0" d="M14.2,10.9v3.3"/>
<path class="st0" d="M21.2,22.5l-1.8-1"/>
<path class="st0" d="M16.2,10.7c0.3,1.2,1.1,2.6,2,3.5"/>
<path class="st0" d="M14.2,1.9v3.3"/>
<path class="st0" d="M9,7c-1.3,0.6-2.7,2.4-3.2,4l-2.2,1.3"/>
<path class="st1" d="M7.2,22.5l3.4,2"/>
<path class="st1" d="M19.4,21.4L19,21.2"/>
<path class="st1" d="M5.3,15.1l0.4-0.2"/>
<path class="st1" d="M3.5,20.4v-4.2"/>
<path class="st1" d="M17.8,6.1v0.5"/>
<path class="st1" d="M5.8,14.9c0.6,1.2,2.6,1,4-0.3l0.4-0.4"/>
<path class="st1" d="M12.1,10.7l0.2-1.6c0.1-1.7-1.2-2.9-2.6-2.4L9,7"/>
<path class="st1" d="M21.2,6l-3.4-2l-3.6-2.1"/>
<path class="st1" d="M7.2,6L3.5,8.1"/>
<path class="st1" d="M12.2,17.7l-1.5,0.6c-1.6,0.8-1.9,2.5-0.8,3.5l0.6,0.5"/>
<path class="st1" d="M24.8,8.1L21.2,6"/>
<path class="st1" d="M22.6,13.6c-0.6-1.2-2.6-1-4,0.3c-1.4,1.2-2.7,3.8-2.6,5.5c-0.1,1.7,1.2,2.9,2.6,2.4c1.4-0.3,3.3-2.4,4-4.3"/>
<path class="st1" d="M24.8,20.4l-10.7,6.2"/>
<path class="st1" d="M10.5,21.8c1.3,0,2.2-1.7,1.7-3.6c-0.3-1.8-1.9-4.3-3.4-5c-1.5-1-3.1-0.4-3.4,1.1c-0.5,1.4,0.4,4.1,1.7,5.6"/>
<path class="st1" d="M3.5,16.2V8.1"/>
<path class="st1" d="M7.2,6l7-4.1"/>
<path class="st1" d="M19,21.2c0.7-1.1-0.4-2.7-2.2-3.3l-0.5-0.1"/>
<path class="st1" d="M17.8,6.6c-1.3,0-2.2,1.7-1.7,3.6l0.1,0.5"/>
<path class="st1" d="M14.2,26.5l-3.6-2.1"/>
<path class="st1" d="M18.3,14.2l1.2,1c1.5,1,3.1,0.4,3.4-1.1l0.1-0.8"/>
<path class="st1" d="M7.2,22.5l-3.6-2.1"/>
<path class="st1" d="M24.8,16.2v4.2"/>
<path class="st1" d="M24.8,16.2V8.1"/>
<path class="st1" d="M9.4,7.3c-0.7,1.1,0.4,2.7,2.2,3.3c1.7,0.7,4.7,0.5,6.1-0.4c1.6-0.8,1.9-2.5,0.8-3.5c-0.9-1.1-3.7-1.7-5.7-1.3"
	/>
<path class="st0" d="M24.8,20.4l-10.7,6.2"/>
<path class="st0" d="M7.2,6l7-4.1"/>
<path class="st0" d="M3.5,20.4v-4.2"/>
<path class="st0" d="M7.2,22.5l-3.6-2.1"/>
<path class="st0" d="M19,21.2c0.7-1.1-0.4-2.7-2.2-3.3l-0.5-0.1"/>
<path class="st0" d="M12.1,10.7l0.2-1.6c0.1-1.7-1.2-2.9-2.6-2.4L9,7"/>
<path class="st0" d="M7.2,22.5l3.4,2"/>
<path class="st0" d="M5.3,15.1l0.4-0.2"/>
<path class="st0" d="M17.8,6.1v0.5"/>
<path class="st0" d="M21.2,6l-3.4-2"/>
<path class="st0" d="M11.4,15.8l-5,2.9"/>
<path class="st0" d="M22,18.7l-5-2.9"/>
<path class="st0" d="M17.8,4l-3.6-2.1"/>
<path class="st0" d="M5.8,14.9c0.6,1.2,2.6,1,4-0.3l0.4-0.4"/>
<path class="st0" d="M12.2,17.7l-1.5,0.6c-1.6,0.8-1.9,2.5-0.8,3.5l0.6,0.5"/>
<path class="st0" d="M22.6,17.5l2.2-1.3V8.1"/>
<path class="st0" d="M7.2,19.9v2.6"/>
<path class="st0" d="M19.4,21.4L19,21.2"/>
<path class="st0" d="M24.8,8.1L21.2,6"/>
<path class="st0" d="M14.2,14.2l10.7-6.2"/>
<path class="st0" d="M22.6,13.6c-0.6-1.2-2.6-1-4,0.3c-1.4,1.2-2.7,3.8-2.6,5.5c-0.1,1.7,1.2,2.9,2.6,2.4c1.4-0.3,3.3-2.4,4-4.3"/>
<path class="st0" d="M24.8,12.3l-2.2,1.3"/>
<path class="st0" d="M7.2,6l2.2,1.3"/>
<path class="st0" d="M24.8,16.2v4.2"/>
<path class="st0" d="M14.2,14.2v12.3"/>
<path class="st0" d="M3.5,16.2V8.1l10.7,6.2"/>
<path class="st0" d="M12.8,5.3L10.5,4"/>
<path class="st0" d="M9.4,7.3c-0.7,1.1,0.4,2.7,2.2,3.3c1.7,0.7,4.7,0.5,6.1-0.4c1.6-0.8,1.9-2.5,0.8-3.5c-0.9-1.1-3.7-1.7-5.7-1.3"
	/>
<path class="st0" d="M10.5,21.8c1.3,0,2.2-1.7,1.7-3.6c-0.3-1.8-1.9-4.3-3.4-5c-1.5-1-3.1-0.4-3.4,1.1c-0.5,1.4,0.4,4.1,1.7,5.6"/>
<path class="st0" d="M10.5,24.4v-2.6"/>
<path class="st0" d="M14.2,26.5l-3.6-2.1"/>
<path class="st0" d="M18.3,14.2l1.2,1c1.5,1,3.1,0.4,3.4-1.1l0.1-0.8"/>
<path class="st0" d="M7.2,6L3.5,8.1"/>
<path class="st0" d="M14.2,5.2v5.8"/>
<path class="st0" d="M17.8,6.6c-1.3,0-2.2,1.7-1.7,3.6l0.1,0.5"/>
</svg>
